PathFileType	4	(X/Y/Z)	/Users/mathieubourgeois/Desktop/Analyse/Traitement/Sujet_05/Data/Transformed_Sujet_05_velo_80.trc
DataRate	CameraRate	NumFrames	NumMarkers	Units	OrigDataRate	OrigDataStartFrame	OrigNumFrames
120.000000	120.000000	4	36	mm	120.000000	247	1976
Frame#	Time	RFHD			RANE			STRN			LANI			LKNE			T10			RHUM			RWRB			C7			LFWT			LTOE			RTOE			LWRA			LBWT			RBWT			RFWT			LKNI			RKNI			RKNE			LANE			RANI			LHEE			RHEE			LHUM			LRAD			RRAD			RWRA			LWRB			LFHD			LBHD			RBHD			RSHO			LSHO			CLAV			LCAR			RCAR			
		X1	Y1	Z1	X2	Y2	Z2	X3	Y3	Z3	X4	Y4	Z4	X5	Y5	Z5	X6	Y6	Z6	X7	Y7	Z7	X8	Y8	Z8	X9	Y9	Z9	X10	Y10	Z10	X11	Y11	Z11	X12	Y12	Z12	X13	Y13	Z13	X14	Y14	Z14	X15	Y15	Z15	X16	Y16	Z16	X17	Y17	Z17	X18	Y18	Z18	X19	Y19	Z19	X20	Y20	Z20	X21	Y21	Z21	X22	Y22	Z22	X23	Y23	Z23	X24	Y24	Z24	X25	Y25	Z25	X26	Y26	Z26	X27	Y27	Z27	X28	Y28	Z28	X29	Y29	Z29	X30	Y30	Z30	X31	Y31	Z31	X32	Y32	Z32	X33	Y33	Z33	X34	Y34	Z34	X35	Y35	Z35	X36	Y36	Z36	

248	2.058333333333333	143.6147155761718	1355.002563476562	127.7573013305663	-315.2079467773438	589.3546142578125	188.5979919433593	-203.2310791015625	1150.98583984375	30.00700950622549	-170.31982421875	279.5782775878906	-62.32997894287113	-187.0753936767578	675.2443237304688	-140.0045928955079	-328.2138671875	1356.447265625	35.06647109985339	21.38893699645994	1031.106689453125	199.5413055419921	241.6229248046875	891.189453125	247.3627777099609	-98.94171142578125	1417.197875976562	37.04229736328115	-357.1542663574219	1065.59033203125	-94.1186981201173	-27.95285606384276	171.7265014648438	-94.0325164794922	-205.7624664306641	420.841064453125	157.2394256591796	273.7367858886719	931.7545776367188	-149.3246154785157	-530.6000366210938	1101.191528320312	-31.28644943237318	-524.2997436523438	1115.679077148438	104.4237518310545	-363.7417297363281	1078.053955078125	150.2377624511718	-183.710205078125	640.7571411132812	-33.42110443115241	-58.14762496948244	831.0459594726562	111.1245574951171	-59.40623474121097	871.3082885742188	218.0255432128906	-208.2791900634765	282.8637084960938	-136.9245910644532	-286.7125244140625	575.1538696289062	106.8837585449218	-257.8102722167969	248.1505279541016	-93.02323913574223	-379.6496887207031	597.300537109375	143.7521514892577	18.19240951538088	1044.516967773438	-154.8866119384766	68.92851257324222	1075.043212890625	-193.7638397216797	60.95890045166013	1063.476318359375	251.7535858154296	273.6109008789062	934.424072265625	194.8728942871093	239.0333862304688	882.4415893554688	-183.0347747802735	163.0525054931641	1352.812255859375	-17.98953247070319	44.11592102050782	1447.282104492188	-41.32738494873055	20.250186920166	1473.83203125	90.88986968994132	-36.43874359130862	1321.079833984375	186.3394317626952	-60.6751365661621	1332.251586914062	-117.6541900634767	-85.04384613037109	1274.708374023438	36.28514480590812	316.51416015625	924.6595458984375	-226.6084289550782	319.4544372558593	929.365234375	283.4359741210938	
249	2.066666666666666	143.9806823730468	1355.04931640625	128.8680267333984	-306.3728332519531	594.6956787109375	188.9113311767578	-202.4753265380859	1151.088745117188	30.47696304321279	-182.3240051269531	274.8632202148438	-61.0956954956055	-193.2435455322265	670.7562255859375	-139.8201446533204	-327.7431945800781	1356.448974609375	35.48350906372058	21.47314453124998	1031.142333984375	199.9421234130859	241.7057952880859	891.1007080078125	247.5047760009765	-98.48872375488281	1417.3720703125	37.83779525756826	-356.8796691894531	1065.166625976562	-94.24359130859386	-39.21355819702147	164.8074188232422	-94.26095581054689	-193.7050018310547	428.3246765136719	157.2972259521484	273.8174438476562	931.75146484375	-149.1971740722657	-530.0524291992188	1101.303466796875	-31.06026840209974	-523.6348876953125	1116.04638671875	104.539352416992	-363.1913146972656	1078.726318359375	149.9315643310546	-190.226318359375	636.48388671875	-33.12133789062506	-54.07120895385744	841.6806030273438	111.3427963256835	-55.76737976074222	881.1196899414062	218.2649536132812	-218.1864471435547	278.545166015625	-136.9046630859376	-278.0325317382812	581.7495727539062	107.8950653076171	-267.8492736816406	244.6521148681641	-92.83467102050786	-370.6510620117188	601.4224853515625	144.3012084960937	18.43844985961916	1044.848510742188	-154.5415039062501	69.18132019042972	1075.336181640625	-193.4259185791016	61.00532913208005	1063.380737304688	252.2173919677734	272.7915954589844	934.5580444335938	194.9974975585937	239.0723571777344	882.50537109375	-182.8926544189453	163.6167907714844	1352.929565429688	-16.81550216674811	44.76460266113282	1447.455810546875	-40.34165954589852	20.62737464904784	1473.912231445312	91.87574005126945	-36.17361831665041	1321.199951171875	187.1688079833984	-60.14379119873045	1332.713134765625	-116.986427307129	-84.41576385498047	1274.963623046875	36.96782302856437	316.5506591796875	924.693603515625	-226.4870910644532	319.5465393066406	929.233154296875	283.5702819824219	
250	2.075	144.324234008789	1355.056030273438	129.8973999023437	-297.1412658691406	599.1805419921875	189.2414550781249	-201.9137725830078	1151.146118164062	30.89207458496084	-192.0055847167969	271.1807250976562	-61.32234191894535	-198.9870910644531	667.069091796875	-139.7298736572266	-327.3154296875	1356.488159179688	35.95212936401354	21.58027458190915	1031.144775390625	200.2701110839843	241.7812194824218	891.0138549804688	247.6402893066406	-98.08582305908203	1417.519409179688	38.55987167358388	-356.6833190917969	1064.881225585938	-94.33760070800793	-50.92078399658202	158.7016143798828	-94.52590179443361	-181.2335052490235	435.1004638671875	157.3558807373046	273.8941040039062	931.7569580078125	-149.0524291992188	-529.6286010742188	1101.483764648438	-30.7215385437013	-522.9818115234375	1116.444702148438	104.8869552612303	-362.707275390625	1079.157592773438	149.8295898437499	-195.8954467773438	632.9559936523438	-32.97098922729498	-49.5226402282715	852.3006591796875	111.4557952880859	-52.48088073730472	890.6017456054688	218.3912658691406	-228.3300323486328	275.1455383300781	-136.9085693359376	-265.0593566894531	586.6705932617188	106.6783828735351	-278.2952880859375	242.0676727294922	-92.78696441650395	-361.7025146484375	604.378662109375	144.6703186035155	18.61847877502443	1045.100952148438	-154.165756225586	69.28956604003909	1075.41064453125	-193.2613372802735	61.07687377929685	1063.281982421875	252.6499633789062	272.8366088867188	934.5240478515625	195.1708984375	239.246078491211	882.8125610351562	-182.7273712158203	164.2165222167969	1353.001708984375	-15.78077411651618	45.39889526367188	1447.579467773438	-39.43566513061531	21.06409263610839	1473.992919921875	92.73722076416007	-35.7314147949219	1321.376953125	188.2343292236327	-59.63099288940428	1333.152709960938	-116.3960571289063	-83.84749603271484	1275.137084960938	37.53646087646476	316.5746765136719	924.7064819335938	-226.352294921875	319.6718139648437	929.0919189453125	283.7066955566406	
251	2.083333333333333	144.6876983642578	1355.075561523438	130.8099060058593	-287.6033325195312	602.7151489257812	189.5536499023437	-201.1026153564453	1151.240478515625	31.22051620483389	-202.3101196289062	268.2548522949219	-61.46318817138675	-203.9288330078125	664.0394287109375	-139.6693420410157	-326.846435546875	1356.533447265625	36.55179595947253	21.69647979736326	1031.130126953125	200.5537109374999	241.8631439208984	890.93115234375	247.7556457519531	-97.65318298339844	1417.673217773438	39.23635482788076	-356.6038208007812	1064.739379882812	-94.38642883300793	-62.95884323120116	153.3988037109375	-94.72100830078128	-169.2789764404297	441.0818176269531	157.6769561767578	273.9766540527344	931.7672119140625	-148.9215393066407	-529.2860717773438	1101.768676757812	-30.20166778564466	-522.313720703125	1116.876708984375	105.3893966674803	-362.3465270996094	1079.565673828125	149.7775878906249	-200.9466552734375	630.1419067382812	-32.89696121215826	-44.7125930786133	862.3973388671875	111.5032958984374	-49.63861846923831	899.6785278320312	218.451187133789	-238.5957946777343	272.6293334960938	-136.9561004638672	-257.2515563964844	590.687744140625	107.2349548339843	-289.0026245117188	240.5005035400391	-92.81182098388676	-352.0842895507812	606.2692260742188	144.8329467773437	18.7720470428467	1045.357666015625	-153.7981872558594	69.49167633056643	1075.641479492188	-192.9498443603516	61.17786788940427	1063.172607421875	253.0464630126953	272.9118041992188	934.4682006835938	195.3396301269531	239.0960235595703	882.899169921875	-183.0001220703125	164.8084564208984	1353.068725585938	-14.82225322723395	46.06427383422852	1447.709838867188	-38.66613769531258	21.5160732269287	1474.070922851562	93.54955291748038	-35.5586738586426	1321.390380859375	188.597183227539	-59.16910171508788	1333.539428710938	-115.8988113403321	-83.29541015625	1275.27001953125	38.08010482788077	316.5944213867188	924.7298583984375	-226.2434387207032	319.8034362792968	928.9712524414062	283.8407592773438	
